<svg width="93" height="33" viewBox="0 0 93 33" fill="none" xmlns="http://www.w3.org/2000/svg">
<path d="M16.3992 6.80206C15.9718 5.86715 14.5695 2.69516 11.6846 1.91385C10.4433 1.66038 9.15836 1.72128 7.94659 2.09099C6.73482 2.4607 5.63471 3.1275 4.74631 4.03073C2.3356 6.70189 2.38902 10.5283 3.06349 13.2195C3.29663 14.42 3.84413 15.5372 4.65011 16.457C5.45609 17.3767 6.49169 18.0662 7.6512 18.455C8.7051 18.7709 9.81595 18.8491 10.9037 18.684C11.9915 18.5188 13.0291 18.1145 13.9418 17.5C15.3121 16.4861 16.2871 15.0271 16.6997 13.3731L16.3992 17.8807C16.3992 17.8807 16.052 18.1077 15.5712 18.3815C12.4392 20.0176 7.65119 20.2713 4.74631 18.5084C1.13358 16.318 0.0317287 13.4198 0.00501717 10.4482C-0.0475185 8.86179 0.31328 7.289 1.05201 5.88413C1.79074 4.47926 2.88201 3.29058 4.21876 2.43472C8.22549 -0.0294188 12.0119 0.431355 16.1722 2.43472C16.1722 2.4414 16.3992 6.64847 16.3992 6.80206Z" fill="#00272A"/>
<path d="M33.0672 18.0279C33.2022 18.3647 33.4046 18.6704 33.6617 18.9265C33.9189 19.1825 34.2256 19.3834 34.563 19.517H30.0888C30.7566 19.0362 30.9636 18.8492 30.7165 18.0546C30.6364 17.8275 29.0871 13.9544 29.0871 13.9544H22.269L20.5394 18.1815C20.2389 18.8493 20.3391 19.1097 21.0136 19.517H18.1287C18.7067 19.1272 19.1315 18.549 19.3307 17.881C19.3307 17.881 20.6663 14.7824 20.6663 14.6288L26.2824 1.03265L33.0672 18.0279ZM28.5529 12.6188L25.7682 5.54023L22.8433 12.6188H28.5529Z" fill="#00272A"/>
<path d="M48.5866 1.03222H51.5649C50.4898 1.45961 50.6167 2.04058 50.6167 2.76847V19.7169L37.4813 3.26931V17.7269C37.4813 18.4815 37.4078 19.0625 38.4362 19.4899H35.4512C36.5063 19.0358 36.3794 18.4815 36.3794 17.7269V3.26931C36.3794 1.80686 36.3794 1.78014 34.8502 1.02554H38.483L49.5415 14.8221V2.76847C49.5415 2.04058 49.6884 1.4329 48.5866 1.03222Z" fill="#00272A"/>
<path d="M69.8421 6.80197C69.4147 5.86706 68.0124 2.69507 65.1342 1.91375C63.8919 1.65973 62.6058 1.72033 61.3928 2.09005C60.1799 2.45976 59.0786 3.12685 58.1892 4.03064C55.7785 6.7018 55.8319 10.5282 56.5064 13.2194C56.7395 14.4199 57.287 15.5371 58.093 16.4569C58.899 17.3767 59.9346 18.0661 61.0941 18.4549C62.148 18.7708 63.2589 18.849 64.3466 18.6839C65.4344 18.5187 66.472 18.1144 67.3847 17.4999C68.755 16.486 69.73 15.027 70.1426 13.373L69.8421 17.8806C69.8421 17.8806 69.4949 18.1076 69.0141 18.3814C65.8821 20.0175 61.0941 20.2713 58.1892 18.5083C54.5765 16.318 53.4746 13.4197 53.4479 10.4481C53.3954 8.8617 53.7562 7.28891 54.4949 5.88404C55.2336 4.47917 56.3249 3.29048 57.6617 2.43463C61.6684 -0.0295103 65.4548 0.431264 69.6151 2.43463C69.6151 2.44131 69.8421 6.64837 69.8421 6.80197Z" fill="#00272A"/>
<path d="M76.3598 1.03253C78.2162 1.03253 81.5017 0.858905 83.1311 3.40318C83.5251 4.03774 83.7339 4.7698 83.7339 5.51673C83.7339 6.26366 83.5251 6.99572 83.1311 7.63028C82.4409 8.86571 81.3146 9.79915 79.9725 10.248C80.7939 10.6019 81.3081 11.3298 81.849 12.2514C83.0777 14.0878 83.8524 15.2698 85.0343 17.0862C86.5102 19.0228 86.5903 19.1763 87.7055 19.5303H86.7572C84.1729 19.5303 83.6721 19.6772 82.1428 17.1129L79.8122 13.1863C78.9308 11.6971 78.4299 11.016 77.3014 11.016H75.525V17.7673C75.525 18.5219 75.3982 19.0495 76.48 19.5303C76.48 19.5303 72.4131 19.5303 72.2929 19.5303C73.3681 19.0495 73.2412 18.5219 73.2412 17.7673V2.76878C73.2412 2.04089 73.3414 1.48663 72.2929 1.03253H76.3598ZM75.5851 9.94751H77.4416C78.5045 9.91813 79.5166 9.4861 80.273 8.73881C80.8163 8.17892 81.2056 7.48816 81.4034 6.73351C81.6011 5.97886 81.6005 5.18592 81.4016 4.43157C81.2583 3.85979 80.9525 3.34173 80.5212 2.94C80.0898 2.53827 79.5513 2.27005 78.9708 2.16777C77.8462 2.05224 76.7146 2.01876 75.5851 2.0676V9.94751Z" fill="#00272A"/>
<path d="M92.2063 19.517C92.2063 19.517 88.1461 19.517 88.0192 19.517C89.0944 19.0362 88.9675 18.5087 88.9675 17.7541V2.7689C88.9675 2.04101 89.0944 1.48675 88.0192 1.03265H92.2063C91.1244 1.48675 91.2513 2.04101 91.2513 2.7689V17.7541C91.2513 18.5087 91.1244 19.0362 92.2063 19.517Z" fill="#00272A"/>
<g stroke-width="0.3" stroke="#00272A" fill="#00272A">
  <path d="M35.3509 28.3112H35.3113L35.3109 28.3509L35.2842 31.4227L35.2842 31.4227L35.2843 31.4248C35.2956 31.6887 35.2035 31.9467 35.0277 32.1438C34.9457 32.2294 34.8467 32.2968 34.7371 32.3418C34.6273 32.3868 34.5092 32.4083 34.3905 32.4048L34.3905 32.4047L34.3877 32.4048C34.1532 32.4144 33.9243 32.3322 33.7495 32.1757C33.6654 32.086 33.6011 31.9796 33.5605 31.8635C33.5198 31.7469 33.5041 31.623 33.5143 31.4998L33.5179 31.4565H33.4745H33.1072H33.0694L33.0672 31.4942C33.0571 31.6695 33.0831 31.8449 33.1436 32.0098C33.204 32.1746 33.2977 32.3252 33.4188 32.4523L33.4187 32.4524L33.4214 32.4549C33.6954 32.6945 34.0532 32.8157 34.4164 32.792C34.5962 32.8007 34.7758 32.7715 34.9437 32.7065C35.1123 32.6412 35.2653 32.5412 35.3927 32.4129L35.3927 32.4129L35.3936 32.4119C35.5191 32.2764 35.6161 32.1171 35.6787 31.9434C35.7412 31.7701 35.7683 31.5859 35.7582 31.4019V28.3512V28.3112H35.7182H35.3509Z"/>
  <path d="M39.1773 30.6486H39.2199L39.2173 30.6061L39.1972 30.2856L39.1949 30.2481H39.1573H37.1939V28.6853H39.5046H39.5446V28.6453V28.3515V28.3115H39.5046H36.8334H36.7934V28.3515V32.6921V32.7321H36.8334H39.5046H39.5446V32.6921V32.3849V32.3449H39.5046H37.214V30.6486H39.1773Z"/>
  <path d="M41.0864 31.5157L41.0864 31.5157L41.0861 31.5145L40.3181 28.3425L40.3107 28.3119H40.2793H39.9053H39.8539L39.8665 28.3617L40.9684 32.7224L40.976 32.7526H41.0072H41.3544H41.3843L41.3928 32.7239L42.3945 29.3248L42.3945 29.3248L42.3949 29.3232L42.4641 29.0464L42.5378 29.3238L42.5378 29.3238L42.5381 29.3248L43.5264 32.7038L43.5348 32.7325H43.5648H43.912H43.9432L43.9508 32.7023L45.0393 28.3616L45.0518 28.3119H45.0005H44.6266H44.5952L44.5877 28.3423L43.8064 31.5143L43.8064 31.5143L43.8061 31.5157L43.7024 32.0095L43.5836 31.5146L43.5837 31.5146L43.5832 31.5128L42.6549 28.314L42.6466 28.2852H42.6165H42.2893H42.2594L42.2509 28.3139L41.3094 31.5126L41.3093 31.5126L41.3088 31.5146L41.1901 32.0095L41.0864 31.5157Z"/>
  <path d="M48.0924 30.6486H48.1349L48.1323 30.6061L48.1122 30.2856L48.1099 30.2481H48.0723H46.109V28.6853H48.4196H48.4596V28.6453V28.3515V28.3115H48.4196H45.7484H45.7084V28.3515V32.6921V32.7321H45.7484H48.4196H48.4596V32.6921V32.3849V32.3449H48.4196H46.129V30.6486H48.0924Z"/>
  <path d="M51.7117 32.3849V32.3449H51.6717H49.5748V28.3515V28.3115H49.5348H49.1675H49.1275V28.3515V32.6921V32.7321H49.1675H51.6717H51.7117V32.6921V32.3849Z"/>
  <path d="M52.7336 32.7319H52.7736V32.6919V30.9222H53.9658L54.9894 32.7118L55.0009 32.7319H55.0241H55.4114H55.4514V32.6919V32.6518V32.641L55.4459 32.6316L54.3902 30.8264C54.6429 30.7488 54.8661 30.5952 55.029 30.3859L55.029 30.3859L55.03 30.3845C55.2145 30.1256 55.3007 29.8094 55.2729 29.4926C55.2452 29.1759 55.1053 28.8795 54.8785 28.6566L54.8787 28.6564L54.8751 28.6537C54.5603 28.4076 54.1661 28.2857 53.7674 28.3113H52.3663H52.3263V28.3513V32.6919V32.7319H52.3663H52.7336ZM53.8569 30.535L53.8569 30.535H53.8555H52.7736V28.7118H53.762V28.7119L53.7642 28.7117C54.0494 28.6958 54.3308 28.7826 54.5575 28.9562C54.6502 29.0424 54.7227 29.1481 54.7699 29.2655C54.8174 29.3836 54.8381 29.5107 54.8306 29.6377L54.8304 29.6377L54.8305 29.641C54.8332 29.7601 54.8107 29.8785 54.7646 29.9884C54.7185 30.0982 54.6498 30.197 54.563 30.2784C54.3698 30.4523 54.1166 30.5443 53.8569 30.535Z"/>
  <path d="M57.3617 30.6332L56.1007 28.3322L56.0893 28.3115H56.0656H55.6316H55.562L55.597 28.3716L57.1475 31.0334V32.6587V32.6987H57.1875H57.5548H57.5948V32.6587V31.0335L59.1519 28.3717L59.1872 28.3115H59.1174H58.6967H58.6734L58.6619 28.3318L57.3617 30.6332Z"/>
</g>
<g opacity="0.7">
<path opacity="0.7" d="M10.7561 29.1394C10.6073 29.1406 10.4612 29.0988 10.3354 29.0192C10.2125 28.9428 10.1059 28.843 10.0216 28.7254C9.938 28.6077 9.88103 28.4732 9.85462 28.3314C9.82825 28.1924 9.82825 28.0497 9.85462 27.9107C9.93594 27.4938 10.1195 27.1038 10.3888 26.7754C10.7271 26.3416 11.1198 25.9533 11.5575 25.6201C12.0642 25.2325 12.613 24.9032 13.1936 24.6385C13.8317 24.3352 14.5044 24.1109 15.1969 23.9707C15.4774 23.5634 15.7312 23.1694 15.9649 22.8021L16.5859 21.8204C16.7595 21.5333 16.9465 21.2194 17.1469 20.8722C17.1603 20.8443 17.1797 20.8198 17.2039 20.8005C17.228 20.7811 17.2561 20.7674 17.2862 20.7604C17.3163 20.7533 17.3476 20.7531 17.3778 20.7597C17.408 20.7664 17.4363 20.7797 17.4607 20.7987C17.5093 20.828 17.5448 20.8748 17.5597 20.9296C17.5746 20.9843 17.5679 21.0427 17.5409 21.0925L17.0267 21.9673C16.8664 22.2144 16.6861 22.5083 16.4791 22.8355C16.2721 23.1627 16.0383 23.5033 15.8113 23.8972C18.033 23.3985 20.2246 22.7742 22.3756 22.0274C22.4036 22.016 22.4336 22.0109 22.4638 22.0123C22.4939 22.0137 22.5233 22.0217 22.55 22.0357C22.5768 22.0497 22.6001 22.0693 22.6184 22.0933C22.6367 22.1172 22.6496 22.1449 22.6561 22.1744C22.6688 22.2026 22.6751 22.2333 22.6747 22.2643C22.6744 22.2952 22.6673 22.3257 22.6539 22.3537C22.6406 22.3816 22.6213 22.4063 22.5975 22.4261C22.5737 22.4459 22.5458 22.4602 22.5159 22.4682C20.2124 23.2814 17.8564 23.9373 15.464 24.4315L15.1168 24.9323L14.7495 25.4332C14.1752 26.2278 13.6744 26.8756 13.2403 27.3631C12.893 27.7713 12.5158 28.153 12.1117 28.505C11.8723 28.7214 11.6023 28.9014 11.3104 29.0392C11.1334 29.1063 10.9455 29.1403 10.7561 29.1394ZM14.8029 24.5383C14.1867 24.6837 13.5919 24.9082 13.0333 25.2061C12.5357 25.4595 12.0657 25.7639 11.6309 26.1143C11.2734 26.3966 10.9565 26.727 10.6894 27.096C10.4844 27.3559 10.3427 27.66 10.2753 27.9841C10.2337 28.1121 10.2406 28.2509 10.2948 28.3741C10.349 28.4972 10.4467 28.5961 10.5691 28.6519C10.6852 28.6819 10.807 28.6819 10.9231 28.6519C11.1695 28.5824 11.3976 28.4593 11.5909 28.2913C11.9927 27.9704 12.3659 27.6152 12.7061 27.2295C13.2957 26.5658 13.8486 25.8702 14.3622 25.146L14.8029 24.5383ZM17.8547 19.797C17.9749 19.797 18.0551 19.797 18.0818 19.9039C18.0979 19.9384 18.1062 19.976 18.1062 20.0141C18.1062 20.0521 18.0979 20.0897 18.0818 20.1242C18.0445 20.2004 17.9802 20.2599 17.9015 20.2912C17.8627 20.3075 17.8202 20.3124 17.7788 20.3053C17.7373 20.2982 17.6988 20.2794 17.6677 20.2511C17.6241 20.2181 17.5933 20.1709 17.5809 20.1176C17.5793 20.0687 17.5909 20.0203 17.6143 19.9773C17.6431 19.9296 17.6818 19.8886 17.7278 19.8571C17.7703 19.8283 17.8179 19.8079 17.8681 19.797H17.8547Z" fill="url(#paint0_linear)"/>
<path opacity="0.7" d="M30.496 22.1471C30.5076 22.1734 30.5136 22.2019 30.5136 22.2306C30.5136 22.2594 30.5076 22.2878 30.496 22.3141C30.4853 22.3413 30.4691 22.366 30.4484 22.3867C30.4277 22.4073 30.403 22.4235 30.3758 22.4343C30.2367 22.5052 30.0914 22.5633 29.9418 22.6079L29.0002 22.9285L27.9517 23.3024L27.1972 23.5762C26.8766 23.6697 26.5294 23.7632 26.2355 23.8433C25.9417 23.9235 25.5677 24.0036 25.2606 24.0637L24.5193 24.1906C24.2655 24.2316 24.0084 24.2495 23.7514 24.244C23.497 24.2374 23.244 24.2038 22.9968 24.1438C22.7401 24.0761 22.4995 23.9581 22.2889 23.7966C22.1446 23.6832 22.0452 23.5223 22.0084 23.3425C21.9722 23.155 21.9722 22.9623 22.0084 22.7749C22.0544 22.5737 22.1238 22.3787 22.2154 22.1939C22.295 22.0328 22.3842 21.8767 22.4826 21.7264C22.6909 21.3923 22.9526 21.0945 23.2572 20.845C23.5562 20.5963 23.8978 20.4039 24.2656 20.2773C24.4344 20.2276 24.6114 20.2117 24.7864 20.2306C24.8763 20.2381 24.9624 20.2701 25.0354 20.3231C25.1083 20.3761 25.1654 20.448 25.2005 20.5311C25.2275 20.6028 25.2379 20.6797 25.231 20.7561C25.2241 20.8324 25.1999 20.9062 25.1604 20.9718C25.0883 21.0997 24.9983 21.2166 24.8933 21.3191C24.5634 21.5948 24.1943 21.8199 23.7981 21.9869C23.3974 22.1538 23.0034 22.3007 22.6094 22.4209L22.4358 22.9084C22.4052 22.9896 22.3965 23.0773 22.4106 23.1629C22.4247 23.2485 22.461 23.3288 22.516 23.3959C22.7179 23.5815 22.972 23.7004 23.2438 23.7365C23.5096 23.7695 23.7775 23.7828 24.0452 23.7765C24.7912 23.7125 25.5293 23.576 26.2489 23.3692C26.9701 23.1555 27.6846 22.9218 28.3925 22.6613L28.8599 22.4944L29.4209 22.3007L29.9217 22.1271L30.1888 22.0336C30.214 22.0222 30.2413 22.0163 30.269 22.0163C30.2966 22.0163 30.3239 22.0222 30.3491 22.0336C30.3804 22.0407 30.4097 22.0545 30.4351 22.0741C30.4605 22.0938 30.4813 22.1187 30.496 22.1471ZM24.8732 20.6313C24.4795 20.6526 24.1009 20.7897 23.7848 21.0253C23.4654 21.2582 23.178 21.5321 22.93 21.84C23.2984 21.7161 23.6576 21.5666 24.0051 21.3925C24.357 21.2204 24.6567 20.9577 24.8732 20.6313Z" fill="url(#paint1_linear)"/>
<path opacity="0.7" d="M44.8268 22.1475C44.8383 22.1738 44.8443 22.2022 44.8443 22.231C44.8443 22.2597 44.8383 22.2882 44.8268 22.3145C44.816 22.3417 44.7998 22.3664 44.7791 22.387C44.7584 22.4077 44.7337 22.4239 44.7065 22.4347L44.4394 22.5282L43.7716 22.7819C43.7316 22.7819 43.5913 22.842 43.3576 22.9288L42.4427 23.2494C42.0688 23.3762 41.6414 23.5031 41.1739 23.6434C40.7065 23.7836 40.2057 23.9038 39.7048 24.0173C39.204 24.1309 38.6898 24.231 38.1756 24.3112C37.7048 24.3828 37.2294 24.4207 36.7532 24.4247H36.219C36.0342 24.4048 35.8512 24.3714 35.6714 24.3245C35.493 24.2743 35.3223 24.2002 35.1639 24.1041C35.0021 24.0083 34.8631 23.8784 34.7565 23.7235C34.4226 23.9572 34.0887 24.1709 33.7348 24.3913C33.3804 24.5852 33.0121 24.7526 32.6329 24.8921C32.5461 24.9255 32.4593 24.9456 32.3658 24.9723C32.275 24.9853 32.1828 24.9853 32.092 24.9723C32.0019 24.9659 31.9137 24.9433 31.8316 24.9055C31.7482 24.8589 31.6825 24.7862 31.6446 24.6985C31.606 24.5549 31.5902 24.4062 31.5979 24.2577C31.5979 24.1108 31.5979 23.9706 31.658 23.8237C31.7181 23.6768 31.7314 23.5432 31.7782 23.403C31.8249 23.2627 31.8717 23.1158 31.9117 22.9689C31.6112 23.0891 31.3174 23.2093 31.0369 23.3495C30.7564 23.4898 30.4626 23.6167 30.1621 23.7435C30.0356 23.7799 29.9013 23.7799 29.7748 23.7435C29.7075 23.7155 29.6512 23.6663 29.6145 23.6033C29.5947 23.5357 29.5947 23.4639 29.6145 23.3963C29.6096 23.3452 29.6096 23.2938 29.6145 23.2427C29.7284 22.8947 29.8902 22.5643 30.0953 22.261C30.309 21.9539 30.5094 21.6467 30.7097 21.3395C30.711 21.308 30.7219 21.2776 30.741 21.2525C30.7601 21.2274 30.7865 21.2088 30.8165 21.1993C30.8755 21.1827 30.9379 21.1827 30.9969 21.1993C31.025 21.2054 31.0515 21.2175 31.0746 21.2348C31.0976 21.2521 31.1167 21.2741 31.1304 21.2994C31.1471 21.3253 31.156 21.3554 31.156 21.3862C31.156 21.417 31.1471 21.4472 31.1304 21.4731C30.9501 21.7802 30.7698 22.0741 30.5761 22.3612C30.3823 22.6518 30.2126 22.9578 30.0686 23.2761C30.3691 23.1559 30.6696 23.0156 30.9635 22.8687C31.2653 22.7221 31.5837 22.6123 31.9117 22.5415C31.9722 22.5148 32.0391 22.5063 32.1043 22.517C32.1695 22.5276 32.2302 22.557 32.279 22.6016C32.335 22.6407 32.3756 22.6981 32.3939 22.7639C32.4122 22.8297 32.407 22.8998 32.3792 22.9622C32.3057 23.236 32.2323 23.5031 32.1454 23.7569C32.0633 24.0139 32.0205 24.2818 32.0186 24.5516C32.487 24.4481 32.9373 24.2748 33.3541 24.0374C33.7682 23.8036 34.1755 23.5499 34.5695 23.2761C34.5171 22.7766 34.5694 22.2717 34.7231 21.7936C34.8782 21.3152 35.1542 20.8851 35.5245 20.5448C35.6734 20.4312 35.8347 20.3349 36.0053 20.2577C36.1811 20.1878 36.377 20.1878 36.5529 20.2577C36.6423 20.2905 36.7212 20.3469 36.7812 20.421C36.8412 20.4951 36.8799 20.584 36.8934 20.6784C36.9307 20.8662 36.9049 21.0611 36.82 21.2327C36.6372 21.6676 36.3871 22.071 36.0787 22.428C35.7715 22.7841 35.451 23.1247 35.1171 23.4497H35.0837C35.177 23.6025 35.3144 23.7236 35.4777 23.797C36.0408 23.9946 36.6431 24.0542 37.234 23.9706C38.238 23.8743 39.2321 23.6934 40.2057 23.4297C40.6531 23.3162 41.0738 23.1959 41.4745 23.0691L42.5362 22.7285C42.8434 22.6283 43.204 22.5148 43.5646 22.3746L44.0388 22.2143L44.5329 22.034C44.5581 22.0226 44.5854 22.0166 44.6131 22.0166C44.6407 22.0166 44.668 22.0226 44.6932 22.034C44.722 22.0428 44.7488 22.0574 44.7717 22.0769C44.7947 22.0964 44.8134 22.1205 44.8268 22.1475ZM36.4193 20.5782C36.1695 20.6197 35.9373 20.7334 35.7515 20.9054C35.5716 21.0665 35.4223 21.2588 35.3108 21.4731C35.0853 21.9172 34.9577 22.4045 34.9368 22.9021C35.0904 22.7485 35.2573 22.5816 35.4176 22.408C35.5824 22.2356 35.7384 22.055 35.8851 21.867C36.0258 21.681 36.1446 21.4793 36.239 21.266C36.3435 21.0508 36.4047 20.8171 36.4193 20.5782Z" fill="url(#paint2_linear)"/>
<path opacity="0.7" d="M52.6999 22.1475C52.7128 22.1734 52.7195 22.202 52.7195 22.2309C52.7195 22.2599 52.7128 22.2885 52.6999 22.3144C52.6906 22.3414 52.6757 22.366 52.6561 22.3868C52.6365 22.4075 52.6127 22.4238 52.5863 22.4346C52.4452 22.5062 52.2977 22.5644 52.1456 22.6082L51.2107 22.9288L50.1623 23.2894C49.815 23.4096 49.5679 23.5031 49.4143 23.5632C49.0871 23.6567 48.7466 23.7501 48.4527 23.8303C48.1589 23.9104 47.7849 23.9906 47.4711 24.0507L46.7298 24.1775C46.4782 24.2185 46.2234 24.2364 45.9686 24.231C45.712 24.2244 45.4568 24.1908 45.2073 24.1308C44.953 24.0622 44.7147 23.9442 44.5061 23.7835C44.3575 23.6741 44.257 23.5114 44.2256 23.3294C44.185 23.1424 44.185 22.9488 44.2256 22.7618C44.2741 22.5605 44.3458 22.3656 44.4393 22.1808C44.5163 22.0184 44.6056 21.8621 44.7064 21.7134C44.9124 21.3795 45.1718 21.0817 45.4744 20.8319C45.7743 20.5845 46.1157 20.3923 46.4828 20.2643C46.6537 20.2136 46.8331 20.1978 47.0103 20.2175C47.1 20.2258 47.1857 20.2581 47.2586 20.3109C47.3314 20.3638 47.3887 20.4354 47.4243 20.518C47.4514 20.5898 47.4618 20.6667 47.4549 20.743C47.4479 20.8193 47.4238 20.8931 47.3843 20.9588C47.3099 21.0869 47.2177 21.2038 47.1105 21.306C46.7806 21.5818 46.4115 21.8069 46.0153 21.9738C45.6273 22.1401 45.2305 22.285 44.8266 22.4079C44.7732 22.5548 44.7198 22.7218 44.6597 22.8954C44.6261 22.9756 44.6151 23.0634 44.6281 23.1494C44.641 23.2354 44.6774 23.3162 44.7332 23.3829C44.9351 23.5684 45.1892 23.6873 45.461 23.7234C45.729 23.7564 45.9991 23.7698 46.2691 23.7635C47.0149 23.6982 47.7529 23.5618 48.4728 23.3562C49.1873 23.1425 49.9018 22.9087 50.6097 22.6483L51.0771 22.4813L51.6448 22.2877L52.1456 22.1141L52.406 22.0206C52.4323 22.009 52.4608 22.003 52.4895 22.003C52.5183 22.003 52.5467 22.009 52.573 22.0206C52.6015 22.0323 52.6273 22.0496 52.6491 22.0714C52.6709 22.0931 52.6881 22.119 52.6999 22.1475ZM47.0771 20.6316C46.6838 20.6549 46.3057 20.7917 45.9886 21.0256C45.6713 21.2586 45.3861 21.5326 45.1405 21.8403C45.5067 21.7164 45.8638 21.5669 46.209 21.3929C46.5621 21.2227 46.8623 20.9595 47.0771 20.6316Z" fill="url(#paint3_linear)"/>
<path opacity="0.7" d="M63.3779 22.1675C63.3896 22.195 63.3957 22.2245 63.3957 22.2543C63.3957 22.2842 63.3896 22.3137 63.3779 22.3411C63.3642 22.3672 63.3452 22.3901 63.3223 22.4085C63.2993 22.4269 63.2727 22.4403 63.2443 22.448L61.8019 22.9755C61.3745 23.1291 60.8937 23.2961 60.3461 23.4764L58.6633 24.0373L58.276 24.1575C58.0222 24.2443 57.6816 24.3378 57.2476 24.4447C56.8135 24.5515 56.306 24.6517 55.725 24.7519C55.144 24.852 54.5163 24.9322 53.8485 24.9923H53.1807C52.9364 24.9972 52.6922 24.9748 52.4529 24.9255C52.2332 24.8791 52.0288 24.778 51.8585 24.6317C51.7715 24.5451 51.7047 24.4403 51.6631 24.3248C51.6216 24.2093 51.6062 24.086 51.6181 23.9639C51.6277 23.685 51.6749 23.4087 51.7584 23.1425C51.8707 22.8425 52.0116 22.5541 52.1791 22.281C52.9825 21.0902 53.9491 20.018 55.0506 19.0957C56.1488 18.1796 57.3581 17.4055 58.6499 16.7918C58.8569 16.7117 59.0706 16.6316 59.3177 16.5648C59.5334 16.4968 59.7607 16.4741 59.9855 16.498C60.0573 16.5026 60.1267 16.5251 60.1874 16.5637C60.2481 16.6022 60.2981 16.6554 60.3328 16.7184C60.378 16.7778 60.4057 16.8487 60.4128 16.923C60.4199 16.9973 60.406 17.0722 60.3728 17.1391C60.2617 17.4543 60.0734 17.7366 59.8252 17.9605C59.5782 18.1942 59.3311 18.4146 59.0907 18.6282C58.1238 19.4019 57.0915 20.0901 56.0055 20.685C54.9326 21.2816 53.8463 21.8737 52.7467 22.4613C52.5795 22.6645 52.4402 22.889 52.3327 23.1291C52.2246 23.3802 52.144 23.6421 52.0922 23.9105C52.0583 23.9881 52.0546 24.0756 52.0818 24.1559C52.1089 24.2362 52.1651 24.3034 52.2392 24.3445C52.4085 24.4379 52.5946 24.4969 52.7867 24.5181C53.009 24.5364 53.2323 24.5364 53.4545 24.5181H53.8886C54.316 24.4647 54.7167 24.4113 55.0839 24.3512C55.4512 24.2911 55.8319 24.231 56.2125 24.1509C56.5931 24.0707 56.9938 23.9772 57.4212 23.857C57.8486 23.7368 58.3361 23.6033 58.8837 23.4363C59.4312 23.2694 60.0523 23.069 60.7401 22.842C61.4279 22.6149 62.236 22.3345 63.1442 22.0073C63.1693 21.9958 63.1966 21.9899 63.2243 21.9899C63.2519 21.9899 63.2793 21.9958 63.3044 22.0073C63.3274 22.0272 63.3458 22.0518 63.3584 22.0795C63.3711 22.1071 63.3777 22.1371 63.3779 22.1675ZM58.4563 17.4262C57.4485 17.9568 56.4898 18.5759 55.5915 19.276C54.697 19.9791 53.8939 20.7912 53.2008 21.6934C54.0756 21.2593 54.937 20.7986 55.7718 20.3111C56.6147 19.8297 57.4327 19.306 58.2225 18.7418C58.5498 18.4947 58.8903 18.2276 59.2109 17.9538C59.536 17.6774 59.7998 17.3363 59.9855 16.9521C59.7165 16.9625 59.4507 17.0143 59.1975 17.1057C58.9425 17.1931 58.6946 17.3002 58.4563 17.4262Z" fill="url(#paint4_linear)"/>
<path opacity="0.7" d="M72.1726 22.1338C72.183 22.1613 72.1876 22.1907 72.1861 22.2201C72.1845 22.2495 72.177 22.2783 72.1638 22.3046C72.1506 22.331 72.1321 22.3543 72.1095 22.3732C72.0869 22.392 72.0607 22.406 72.0324 22.4142C72.0324 22.4142 71.792 22.5144 71.3646 22.6747C70.9372 22.8349 70.3496 23.042 69.6617 23.2824C69.3412 23.3959 68.9339 23.5295 68.4397 23.6897C67.9455 23.85 67.4313 24.0036 66.8971 24.1572C66.0624 24.3976 65.4013 24.5645 64.8937 24.6513C64.5141 24.7272 64.1307 24.7829 63.7451 24.8183C63.5175 24.8538 63.2845 24.8189 63.0774 24.7181C63.0181 24.6809 62.9701 24.6283 62.9384 24.566C62.9066 24.5037 62.8924 24.434 62.8971 24.3642C62.912 24.1894 62.9669 24.0203 63.0573 23.87C63.1508 23.6897 63.2577 23.5094 63.3645 23.3425L63.6583 22.9151C63.7385 22.7949 63.7785 22.7081 63.7652 22.668C63.7375 22.5933 63.6858 22.5299 63.6183 22.4877L63.4046 22.3809L63.1842 22.2473C63.1064 22.182 63.0524 22.0927 63.0306 21.9935C63.0295 21.7776 63.0922 21.5662 63.2109 21.3858C63.3311 21.2055 63.458 21.0252 63.5916 20.8583C63.7317 20.7105 63.8836 20.5743 64.0457 20.4509C64.124 20.3894 64.2145 20.3451 64.3111 20.3209C64.4078 20.2968 64.5085 20.2933 64.6066 20.3107C64.6735 20.3256 64.7349 20.3592 64.7834 20.4077C64.8319 20.4562 64.8655 20.5176 64.8804 20.5845C64.9276 20.7093 64.9276 20.847 64.8804 20.9718C64.7878 21.2196 64.6471 21.4465 64.4664 21.6396C64.2801 21.8259 64.0839 22.002 63.8787 22.1672C64.0117 22.2419 64.1206 22.3532 64.1926 22.4877C64.2401 22.5626 64.2653 22.6494 64.2653 22.7381C64.2653 22.8268 64.2401 22.9137 64.1926 22.9885C64.0938 23.1487 63.9821 23.3006 63.8587 23.4426C63.7451 23.5896 63.6316 23.7431 63.5248 23.9101C63.4756 23.9683 63.4419 24.038 63.4267 24.1127C63.4115 24.1874 63.4154 24.2647 63.438 24.3375C63.5248 24.4176 63.7785 24.431 64.2059 24.3375C64.6333 24.244 65.1609 24.1572 65.8019 23.9969C66.443 23.8366 67.1375 23.6363 67.8921 23.3959C68.6467 23.1555 69.4013 22.8951 70.1426 22.6213L71.024 22.3074C71.3245 22.2006 71.625 22.0937 71.9256 21.9735C71.9834 21.9501 72.048 21.9501 72.1059 21.9735C72.1287 21.9932 72.1466 22.0179 72.1582 22.0457C72.1698 22.0736 72.1748 22.1037 72.1726 22.1338ZM63.438 21.8867C63.6584 21.7376 63.8622 21.5653 64.0457 21.3725C64.2355 21.1841 64.3815 20.9561 64.473 20.7047C64.2384 20.8369 64.0301 21.0112 63.8587 21.2189C63.6894 21.4218 63.5479 21.6464 63.438 21.8867Z" fill="url(#paint5_linear)"/>
<path opacity="0.7" d="M67.4113 28.9323C67.2388 28.9261 67.0709 28.8755 66.9238 28.7854C66.792 28.696 66.6806 28.58 66.5966 28.4448C66.5122 28.3074 66.4533 28.1558 66.4229 27.9974C66.3896 27.8388 66.3896 27.6751 66.4229 27.5166C66.5426 27.1207 66.7746 26.7681 67.0907 26.5015C67.4592 26.1623 67.8621 25.8624 68.2927 25.6067C68.7203 25.3505 69.1668 25.1273 69.6283 24.9389C70.0891 24.7453 70.4764 24.605 70.7903 24.5049C71.2428 24.3635 71.7047 24.2541 72.1726 24.1776C72.5866 24.1175 73.0007 24.0641 73.4147 24.024C73.782 23.6634 74.1292 23.3563 74.4564 22.9823L75.3513 22.0607C74.7903 22.2544 74.3095 22.4147 73.9155 22.5349C73.5215 22.6551 73.1876 22.7486 72.9272 22.802C72.7183 22.8513 72.5064 22.887 72.2928 22.9088C72.1731 22.9241 72.0519 22.9241 71.9322 22.9088C71.8668 22.9051 71.804 22.8819 71.7519 22.8421L71.6784 22.7619C71.6465 22.6926 71.6284 22.6178 71.625 22.5416C71.6324 22.418 71.6715 22.2984 71.7385 22.1943C71.8447 22.0187 71.9726 21.8572 72.1192 21.7135C72.3566 21.4653 72.6183 21.2415 72.9005 21.0457C72.9237 21.027 72.9505 21.0133 72.9792 21.0052C73.0079 20.9972 73.0379 20.9951 73.0674 20.999C73.0943 21.0039 73.1197 21.0149 73.1416 21.0311C73.1636 21.0473 73.1816 21.0683 73.1943 21.0925C73.2156 21.1145 73.2315 21.1412 73.2408 21.1704C73.2501 21.1996 73.2526 21.2306 73.2481 21.2609C73.2436 21.2912 73.2322 21.3201 73.2148 21.3453C73.1973 21.3705 73.1743 21.3914 73.1476 21.4063C73.014 21.4998 72.8871 21.6 72.7603 21.7068C72.6431 21.8026 72.5316 21.9052 72.4264 22.014C72.3382 22.0998 72.2556 22.1913 72.1793 22.2878C72.1359 22.3453 72.1 22.4082 72.0724 22.4748C72.2712 22.4774 72.4693 22.4504 72.6601 22.3946C72.9339 22.3345 73.2544 22.2477 73.6284 22.1409L74.8237 21.7602C75.2511 21.62 75.6651 21.4731 76.0725 21.3128C76.0948 21.3015 76.1191 21.2948 76.1441 21.293C76.169 21.2912 76.1941 21.2945 76.2177 21.3026C76.2414 21.3107 76.2632 21.3235 76.2818 21.3401C76.3005 21.3568 76.3156 21.377 76.3262 21.3996C76.3541 21.4399 76.369 21.4876 76.369 21.5365C76.369 21.5855 76.3541 21.6332 76.3262 21.6734L75.6918 22.3412C75.5049 22.5482 75.2711 22.7886 75.0241 23.0624C74.777 23.3362 74.4698 23.6367 74.1626 23.9506L75.1109 23.8437L76.2194 23.6768C76.6268 23.61 77.0742 23.5165 77.555 23.4097C78.0358 23.3028 78.5901 23.1626 79.1911 22.9957C79.9013 22.8102 80.6012 22.5873 81.2879 22.3279C81.7954 22.1275 82.0559 22.0274 82.0559 22.014C82.1137 21.9906 82.1784 21.9906 82.2362 22.014C82.2882 22.0378 82.3289 22.0809 82.3497 22.1342C82.3654 22.1588 82.3751 22.1867 82.3781 22.2157C82.381 22.2447 82.3772 22.274 82.3668 22.3013C82.3564 22.3285 82.3398 22.353 82.3183 22.3727C82.2967 22.3924 82.2709 22.4067 82.2429 22.4147L81.4348 22.7352C80.7424 22.9977 80.0356 23.2206 79.3179 23.403C78.6101 23.6033 77.9824 23.7636 77.4348 23.8771C76.8872 23.9907 76.393 24.0841 75.9523 24.1509C75.5115 24.2177 75.1042 24.2711 74.7302 24.3045L73.6484 24.4247L73.2077 24.8321C73.0608 24.9723 72.9139 25.1125 72.7736 25.2595C70.196 27.6835 68.4196 28.9123 67.4313 28.9456L67.4113 28.9323ZM72.9406 24.4915C72.5965 24.5193 72.2549 24.5729 71.9188 24.6518C71.5249 24.7453 71.1175 24.8588 70.6834 24.999C70.2447 25.1415 69.8144 25.3087 69.3946 25.4999C68.9895 25.6832 68.5969 25.8929 68.2193 26.1276C67.8914 26.3313 67.5907 26.5759 67.3245 26.8555C67.1028 27.0666 66.9434 27.3345 66.8637 27.6301C66.8385 27.7271 66.8338 27.8282 66.8499 27.9271C66.866 28.026 66.9026 28.1204 66.9572 28.2044C67 28.2915 67.0667 28.3647 67.1494 28.4155C67.2321 28.4663 67.3276 28.4927 67.4246 28.4915C67.7908 28.4528 68.1429 28.3294 68.453 28.1309C68.9209 27.8631 69.3675 27.5594 69.7886 27.2228C70.2761 26.8421 70.7903 26.4147 71.3245 25.9406C71.8587 25.4665 72.4197 24.979 72.9406 24.4915Z" fill="url(#paint6_linear)"/>
</g>
<defs>
<linearGradient id="paint0_linear" x1="16.2648" y1="29.1394" x2="16.2648" y2="19.797" gradientUnits="userSpaceOnUse">
<stop stop-color="#00272A"/>
<stop offset="0.99" stop-color="#024247"/>
</linearGradient>
<linearGradient id="paint1_linear" x1="26.2541" y1="24.245" x2="26.2541" y2="20.2229" gradientUnits="userSpaceOnUse">
<stop stop-color="#00272A"/>
<stop offset="0.99" stop-color="#024247"/>
</linearGradient>
<linearGradient id="paint2_linear" x1="37.2338" y1="24.9821" x2="37.2338" y2="20.2053" gradientUnits="userSpaceOnUse">
<stop stop-color="#00272A"/>
<stop offset="0.99" stop-color="#024247"/>
</linearGradient>
<linearGradient id="paint3_linear" x1="48.464" y1="24.2319" x2="48.464" y2="20.2093" gradientUnits="userSpaceOnUse">
<stop stop-color="#00272A"/>
<stop offset="0.99" stop-color="#024247"/>
</linearGradient>
<linearGradient id="paint4_linear" x1="57.5141" y1="24.9929" x2="57.5141" y2="16.4888" gradientUnits="userSpaceOnUse">
<stop stop-color="#00272A"/>
<stop offset="0.99" stop-color="#024247"/>
</linearGradient>
<linearGradient id="paint5_linear" x1="67.5485" y1="24.8318" x2="67.5485" y2="20.2998" gradientUnits="userSpaceOnUse">
<stop stop-color="#00272A"/>
<stop offset="0.99" stop-color="#024247"/>
</linearGradient>
<linearGradient id="paint6_linear" x1="74.4009" y1="28.9456" x2="74.4009" y2="20.9971" gradientUnits="userSpaceOnUse">
<stop stop-color="#00272A"/>
<stop offset="0.99" stop-color="#024247"/>
</linearGradient>
</defs>
</svg>
